Coordinates
version=1
nRows=9
nColumns=24
inDegrees=yes

Units are S.I. units (second, meters, Newtons, ...)
Angles are in degrees.

endheader
time	pelvis_tilt	pelvis_list	pelvis_rotation	pelvis_tx	pelvis_ty	pelvis_tz	hip_flexion_r	hip_adduction_r	hip_rotation_r	knee_angle_r	ankle_angle_r	subtalar_angle_r	mtp_angle_r	hip_flexion_l	hip_adduction_l	hip_rotation_l	knee_angle_l	ankle_angle_l	subtalar_angle_l	mtp_angle_l	lumbar_extension	lumbar_bending	lumbar_rotation
     14.08000000	     52.62316166	     -6.92682699	     -1.22710935	     -0.56539742	      1.09888604	     -0.09189316	     20.83319852	    -13.63124724	     -3.32083452	    -69.70207150	    -11.72444720	      5.38646015	      0.00000000	     20.17600479	    -14.32599014	      3.31815570	    -67.55812322	    -13.82715176	     15.35227322	      0.00000000	      0.00000000	      0.00000000	      0.00000000
     14.09000000	     52.60862368	     -6.92033925	     -1.22007080	     -0.56542698	      1.09889689	     -0.09185291	     20.84172095	    -13.63390980	     -3.31904494	    -69.69266376	    -11.73276533	      5.37015886	      0.00000000	     20.18489050	    -14.29301328	      3.22965973	    -67.29958331	    -13.87232370	     15.40079386	      0.00000000	      0.00000000	      0.00000000	      0.00000000
     14.10000000	     52.59359142	     -6.90961339	     -1.21613798	     -0.56546216	      1.09890594	     -0.09181491	     20.85176337	    -13.64090464	     -3.31376599	    -69.68483055	    -11.74340404	      5.35233449	      0.00000000	     20.19446758	    -14.25879235	      3.14390864	    -67.04121612	    -13.91482750	     15.45038207	      0.00000000	      0.00000000	      0.00000000	      0.00000000
     14.11000000	     52.58084978	     -6.89562557	     -1.21412685	     -0.56550106	      1.09891405	     -0.09177703	     20.86078577	    -13.65074435	     -3.30582413	    -69.67981524	    -11.75555944	      5.33425631	      0.00000000	     20.20237426	    -14.22421099	      3.06164325	    -66.78506885	    -13.95031445	     15.49608185	      0.00000000	      0.00000000	      0.00000000	      0.00000000
     14.12000000	     52.57289746	     -6.88057086	     -1.21199847	     -0.56553629	      1.09891988	     -0.09173345	     20.86637124	    -13.66178214	     -3.29642921	    -69.67816100	    -11.76778841	      5.31738657	      0.00000000	     20.20654934	    -14.18945551	      2.98285396	    -66.53216603	    -13.97570847	     15.53248811	      0.00000000	      0.00000000	      0.00000000	      0.00000000
     14.13000000	     52.57113331	     -6.86660200	     -1.20810890	     -0.56556425	      1.09893115	     -0.09168998	     20.86653455	    -13.67240480	     -3.28659509	    -69.67944183	    -11.77840552	      5.30319813	      0.00000000	     20.20544001	    -14.15467337	      2.90795191	    -66.28260611	    -13.98990832	     15.55507682	      0.00000000	      0.00000000	      0.00000000	      0.00000000
     14.14000000	     52.57534236	     -6.85484805	     -1.20204325	     -0.56559066	      1.09895671	     -0.09165631	     20.85997527	    -13.68145227	     -3.27688081	    -69.68247765	    -11.78599131	      5.29294113	      0.00000000	     20.19817860	    -14.12064377	      2.83851182	    -66.03578388	    -13.99391768	     15.56129267	      0.00000000	      0.00000000	      0.00000000	      0.00000000
     14.15000000	     52.58407661	     -6.84577929	     -1.19449234	     -0.56562571	      1.09899211	     -0.09163186	     20.84657053	    -13.68853789	     -3.26750812	    -69.68581219	    -11.78984616	      5.28739650	      0.00000000	     20.18487396	    -14.08844086	      2.77659435	    -65.79073051	    -13.99039811	     15.55109716	      0.00000000	      0.00000000	      0.00000000	      0.00000000
     14.16000000	     52.59561854	     -6.83985144	     -1.18648216	     -0.56567177	      1.09902551	     -0.09161326	     20.82796642	    -13.69375245	     -3.25860333	    -69.68820983	    -11.79023346	      5.28664884	      0.00000000	     20.16670188	    -14.05851596	      2.72331509	    -65.54672907	    -13.98285070	     15.52686095	      0.00000000	      0.00000000	      0.00000000	      0.00000000
